<?xml version="1.0" encoding="utf-8"?>
<svg xmlns="http://www.w3.org/2000/svg" style="margin: auto; background: rgb(241, 242, 243); display: block; shape-rendering: auto;" width="286" height="169" preserveAspectRatio="xMidYMid">
<style type="text/css">
  text {
    text-anchor: middle; font-size: 61px; opacity: 0;
  }
</style>
<g style="transform-origin: 143px 84.5px; transform: scale(0.530435);">
<g transform="translate(143,84.5)">
  <g transform="translate(0,0)"><g class="path" style="transform: matrix(1, 0, 0, 1, 0, 14.925); opacity: 0.05; transform-origin: -209.645px -4.663px; animation: 1s linear 0s 1 normal forwards running float-btt-in-6e2d2010-e050-4f23-8b12-4f7a720cef38;"><path d="M42.72-40.83L42.72-40.83L42.72-40.83Q43.82-43.70 44.56-46.75L44.56-46.75L44.56-46.75Q45.31-49.80 45.31-52.38L45.31-52.38L45.31-52.38Q45.31-54.97 43.47-61.98L43.47-61.98L43.47-61.98Q40.25-73.72 37.95-75.90L37.95-75.90L37.26-76.70L37.26-76.70Q36.11-77.40 36.11-78.31L36.11-78.31L36.11-78.31Q36.11-80.27 41.29-81.65L41.29-81.65L41.29-81.65Q46.46-83.03 49.74-83.03L49.74-83.03L49.74-83.03Q53.02-83.03 53.59-81.08L53.59-81.08L53.59-81.08Q54.97-76.82 56.64-68.77L56.64-68.77L56.64-68.77Q58.30-60.72 59.51-54.91L59.51-54.91L59.51-54.91Q60.72-49.11 61.41-46L61.41-46L61.41-46Q62.10-42.90 63.25-37.95L63.25-37.95L63.25-37.95Q65.44-28.75 67.62-22.89L67.62-22.89L67.62-22.89Q68.31-21.28 69.29-21.28L69.29-21.28L69.29-21.28Q70.27-21.28 71.36-23.29L71.36-23.29L71.36-23.29Q72.45-25.30 74.35-29.04L74.35-29.04L74.35-29.04Q76.25-32.77 79.41-42.32L79.41-42.32L79.41-42.32Q82.57-51.87 82.57-58.88L82.57-58.88L82.57-58.88Q82.57-69.69 75.44-74.17L75.44-74.17L75.44-74.17Q74.87-74.87 74.87-75.67L74.87-75.67L74.87-75.67Q74.87-76.48 75.67-77.28L75.67-77.28L75.67-77.28Q76.48-77.86 77.97-78.83L77.97-78.83L77.97-78.83Q79.47-79.81 83.95-81.36L83.95-81.36L83.95-81.36Q88.44-82.92 92-82.92L92-82.92L92-82.92Q95.56-82.92 96.26-81.94L96.26-81.94L96.26-81.94Q96.95-80.96 96.95-78.43L96.95-78.43L96.95-78.43Q96.95-67.28 90.33-48.82L90.33-48.82L90.33-48.82Q83.72-30.36 76.30-16.27L76.30-16.27L76.30-16.27Q68.89-2.19 65.20 1.38L65.20 1.38L65.20 1.38Q63.25 3.10 62.91 3.10L62.91 3.10L62.91 3.10Q61.87 3.10 60.95 1.50L60.95 1.50L60.95 1.50Q57.04-5.06 52.44-24.15L52.44-24.15L52.44-24.15Q50.37-33.12 50.03-34.27L50.03-34.27L50.03-34.27Q49.68-35.42 49.45-35.42L49.45-35.42L49.45-35.42Q48.88-35.42 48.41-34.27L48.41-34.27L48.41-34.27Q44.39-24.96 39.45-16.04L39.45-16.04L39.45-16.04Q34.50-7.13 31.51-2.88L31.51-2.88L28.64 1.38L28.64 1.38Q27.48 2.99 26.34 2.99L26.34 2.99L26.34 2.99Q25.19 2.99 24.27 1.50L24.27 1.50L24.27 1.50Q21.16-4.37 16.68-21.16L16.68-21.16L15.18-26.91L15.18-26.91Q14.72-28.52 13.11-35.65L13.11-35.65L13.11-35.65Q7.02-62.91 3.80-69.69L3.80-69.69L3.80-69.69Q1.96-73.48 0.63-74.64L0.63-74.64L0.63-74.64Q-0.69-75.78-1.50-76.02L-1.50-76.02L-1.50-76.02Q-2.76-76.59-2.76-77.45L-2.76-77.45L-2.76-77.45Q-2.76-78.31-1.84-79.12L-1.84-79.12L-1.84-79.12Q-0.46-80.16 4.25-81.59L4.25-81.59L4.25-81.59Q8.97-83.03 12.19-83.03L12.19-83.03L12.19-83.03Q15.41-83.03 15.99-81.08L15.99-81.08L15.99-81.08Q18.29-76.82 21.39-61.98L21.39-61.98L21.39-61.98Q27.95-30.94 31.05-22.89L31.05-22.89L31.05-22.89Q31.63-21.28 32.66-21.28L32.66-21.28L32.66-21.28Q33.70-21.28 34.50-23L34.50-23L34.50-23Q35.54-24.04 38.58-30.99L38.58-30.99L38.58-30.99Q41.63-37.95 42.72-40.83" fill="#a7d4ec" stroke="none" stroke-width="none" transform="translate(-256.73993492126465,35.30200043487549)" style="fill: rgb(167, 212, 236);"></path></g><g class="path" style="transform: matrix(1, 0, 0, 1, 0, 14.925); opacity: 0.05; transform-origin: -142.95px 10.292px; animation: 1s linear 0.066s 1 normal forwards running float-btt-in-6e2d2010-e050-4f23-8b12-4f7a720cef38;"><path d="M106.72-29.21L106.72-29.21L106.83-26.34L106.83-26.34Q106.83-25.64 107.75-25.64L107.75-25.64L107.75-25.64Q111.44-25.99 114.19-27.54L114.19-27.54L114.19-27.54Q116.95-29.10 118.34-31.05L118.34-31.05L118.34-31.05Q121.09-35.30 121.33-38.41L121.33-38.41L121.44-39.79L121.44-39.79Q121.44-46 116.50-46L116.50-46L116.50-46Q112.81-46 110.52-42.78L110.52-42.78L110.52-42.78Q106.72-37.72 106.72-29.21zM131.79-13.92L131.79-13.92L131.79-13.92Q131.79-9.54 130.01-6.27L130.01-6.27L130.01-6.27Q128.22-2.99 125.98-1.44L125.98-1.44L125.98-1.44Q123.74 0.12 120.75 1.04L120.75 1.04L120.75 1.04Q116.95 2.19 113.50 2.19L113.50 2.19L113.50 2.19Q103.84 2.19 99.25-5.06L99.25-5.06L99.25-5.06Q94.64-12.30 94.64-23.52L94.64-23.52L94.64-23.52Q94.64-34.73 100.34-43.47L100.34-43.47L100.34-43.47Q106.03-52.21 117.41-52.21L117.41-52.21L117.41-52.21Q127.77-52.21 131.44-44.97L131.44-44.97L131.44-44.97Q132.94-42.20 132.94-39.73L132.94-39.73L132.94-39.73Q132.94-37.26 132.71-35.82L132.71-35.82L132.71-35.82Q132.48-34.38 131.10-31.51L131.10-31.51L131.10-31.51Q129.72-28.64 127.42-26.34L127.42-26.34L127.42-26.34Q125.12-24.04 120.17-21.96L120.17-21.96L120.17-21.96Q115.23-19.89 108.56-19.21L108.56-19.21L108.56-19.21Q107.64-19.21 107.64-18.40L107.64-18.40L107.64-18.40Q107.64-17.37 108.39-15.35L108.39-15.35L108.39-15.35Q109.13-13.34 110.06-11.96L110.06-11.96L110.06-11.96Q112.59-8.74 117.53-8.74L117.53-8.74L117.53-8.74Q122.47-8.74 125.92-11.96L125.92-11.96L125.92-11.96Q127.77-13.69 128.91-16.21L128.91-16.21L128.91-16.21Q129.38-17.14 130.12-17.14L130.12-17.14L130.12-17.14Q130.87-17.14 131.33-15.87L131.33-15.87L131.33-15.87Q131.79-14.61 131.79-13.92" fill="#a7d4ec" stroke="none" stroke-width="none" transform="translate(-256.73993492126465,35.30200043487549)" style="fill: rgb(167, 212, 236);"></path></g><g class="path" style="transform: matrix(1, 0, 0, 1, 0, 14.925); opacity: 0.05; transform-origin: -100.34px 10.062px; animation: 1s linear 0.132s 1 normal forwards running float-btt-in-6e2d2010-e050-4f23-8b12-4f7a720cef38;"><path d="M174.91-34.50L174.91-34.50L174.68-19.78L174.68-19.78Q174.68-4.49 178.02-1.38L178.02-1.38L178.02-1.38Q178.48-0.92 178.48-0.35L178.48-0.35L178.48-0.35Q178.48 1.38 171.06 1.38L171.06 1.38L171.06 1.38Q163.64 1.38 163.18-2.99L163.18-2.99L163.18-2.99Q163.07-4.03 163.07-7.25L163.07-7.25L163.53-25.64L163.53-25.64Q163.53-26.45 162.61-26.45L162.61-26.45L162.61-26.45Q157.09-26.45 152.26-23.35L152.26-23.35L152.26-23.35Q147.43-20.24 147.43-15.41L147.43-15.41L147.43-15.41Q147.43-12.88 148.81-11.16L148.81-11.16L148.81-11.16Q150.19-9.43 152.20-9.43L152.20-9.43L152.20-9.43Q154.21-9.43 155.54-10.24L155.54-10.24L155.54-10.24Q156.86-11.04 157.09-11.16L157.09-11.16L157.09-11.16Q159.04-10.93 159.04-7.07L159.04-7.07L159.04-7.07Q159.04-3.22 155.48-0.86L155.48-0.86L155.48-0.86Q151.91 1.50 148.00 1.50L148.00 1.50L148.00 1.50Q144.09 1.50 141.28 0.12L141.28 0.12L141.28 0.12Q138.46-1.27 137.19-2.99L137.19-2.99L137.19-2.99Q135.93-4.71 135.12-6.90L135.12-6.90L135.12-6.90Q134.32-9.54 134.32-11.50L134.32-11.50L134.32-11.50Q134.32-19.55 139.38-24.38L139.38-24.38L139.38-24.38Q144.44-29.21 152.37-31.28L152.37-31.28L152.37-31.28Q162.84-33.35 163.30-35.08L163.30-35.08L163.30-35.08Q163.64-36.34 163.64-39.33L163.64-39.33L163.64-39.33Q163.64-45.43 157.43-45.43L157.43-45.43L157.43-45.43Q154.79-45.43 152.72-43.76L152.72-43.76L152.72-43.76Q150.65-42.09 150.65-39.56L150.65-39.56L151.34-36.80L151.34-36.80Q151.11-34.84 147.20-34.50L147.20-34.50L145.93-34.38L145.93-34.38Q142.48-34.38 140.47-36.11L140.47-36.11L140.47-36.11Q138.46-37.84 138.46-40.71L138.46-40.71L138.46-40.71Q138.46-42.55 139.67-44.79L139.67-44.79L139.67-44.79Q140.87-47.04 142.71-48.41L142.71-48.41L142.71-48.41Q144.55-49.80 148.41-50.89L148.41-50.89L148.41-50.89Q152.26-51.98 155.82-51.98L155.82-51.98L155.82-51.98Q159.39-51.98 161.34-51.75L161.34-51.75L161.34-51.75Q163.30-51.52 166.69-50.66L166.69-50.66L166.69-50.66Q170.08-49.80 172.33-47.38L172.33-47.38L172.33-47.38Q174.57-44.97 174.74-42.26L174.74-42.26L174.74-42.26Q174.91-39.56 174.91-34.50" fill="#a7d4ec" stroke="none" stroke-width="none" transform="translate(-256.73993492126465,35.30200043487549)" style="fill: rgb(167, 212, 236);"></path></g><g class="path" style="transform: matrix(1, 0, 0, 1, 0, 14.925); opacity: 0.05; transform-origin: -63.66px 3.157px; animation: 1s linear 0.198s 1 normal forwards running float-btt-in-6e2d2010-e050-4f23-8b12-4f7a720cef38;"><path d="M180.20-44.85L180.20-44.85L180.55-49.45L180.55-49.45Q180.66-50.48 182.16-50.48L182.16-50.48L186.19-50.48L185.72-59.69L185.72-60.15L185.72-60.15Q185.72-62.79 189.75-65.20L189.75-65.20L189.75-65.20Q193.77-67.62 197.11-67.62L197.11-67.62L197.11-67.62Q198.14-67.62 198.14-66.70L198.14-66.70L198.14-66.59L198.14-66.59Q197.69-63.48 197.22-50.60L197.22-50.60L197.22-50.60Q202.28-50.60 203.66-50.83L203.66-50.83L203.66-50.83Q205.04-51.06 205.16-51.06L205.16-51.06L205.16-51.06Q205.96-51.06 205.96-49.68L205.96-49.68L205.96-49.68Q205.96-48.30 204.70-46.17L204.70-46.17L204.70-46.17Q203.44-44.05 201.94-43.93L201.94-43.93L197.11-43.93L197.11-43.93Q197.00-40.02 197.00-30.76L197.00-30.76L197.00-30.76Q197.00-21.51 197.17-15.53L197.17-15.53L197.17-15.53Q197.34-9.54 197.57-6.50L197.57-6.50L197.57-6.50Q197.80-3.45 198.09-1.61L198.09-1.61L198.09-1.61Q198.38 0.23 198.55 1.04L198.55 1.04L198.55 1.04Q198.72 1.84 198.72 2.07L198.72 2.07L198.72 2.07Q198.72 3.22 197.22 3.33L197.22 3.33L197.22 3.33Q192.74 3.33 188.31 2.07L188.31 2.07L188.31 2.07Q183.88 0.81 183.88-2.30L183.88-2.30L183.88-2.30Q186.30-21.62 186.30-43.82L186.30-43.82L186.30-43.82Q183.19-43.82 181.58-43.59L181.58-43.59L181.47-43.59L181.47-43.59Q180.44-43.59 180.20-44.85" fill="#a7d4ec" stroke="none" stroke-width="none" transform="translate(-256.73993492126465,35.30200043487549)" style="fill: rgb(167, 212, 236);"></path></g><g class="path" style="transform: matrix(1, 0, 0, 1, 0, 14.925); opacity: 0.05; transform-origin: -28.35px -3.568px; animation: 1s linear 0.264s 1 normal forwards running float-btt-in-6e2d2010-e050-4f23-8b12-4f7a720cef38;"><path d="M222.52-61.76L222.52-61.76L222.41-50.60L222.41-50.60Q222.41-49.91 222.87-49.91L222.87-49.91L222.87-49.91Q223.33-49.91 223.79-50.26L223.79-50.26L223.79-50.26Q226.66-52.21 232.87-52.21L232.87-52.21L232.87-52.21Q243.34-52.21 247.36-45.08L247.36-45.08L247.36-45.08Q248.86-42.44 248.86-38.07L248.86-38.07L248.86-38.07Q248.86-33.70 248.34-25.99L248.34-25.99L248.34-25.99Q247.82-18.29 247.82-15.07L247.82-15.07L247.82-15.07Q247.82-3.80 251.04-0.12L251.04-0.12L251.04-0.12Q251.62 0.46 251.62 1.04L251.62 1.04L251.62 1.04Q251.62 2.19 246.67 2.19L246.67 2.19L246.67 2.19Q233.33 2.19 233.33-10.24L233.33-10.24L233.33-10.24Q233.33-15.07 235.63-23.80L235.63-23.80L235.63-23.80Q237.93-32.55 237.93-36.69L237.93-36.69L237.93-36.69Q237.93-40.83 235.98-43.07L235.98-43.07L235.98-43.07Q234.02-45.31 230.57-45.31L230.57-45.31L230.57-45.31Q227.12-45.31 225.11-43.82L225.11-43.82L225.11-43.82Q223.10-42.32 222.64-40.71L222.64-40.71L222.29-39.22L222.29-39.22Q222.18-37.03 222.18-25.30L222.18-25.30L222.18-25.30Q222.18-13.57 222.75-10.06L222.75-10.06L222.75-10.06Q223.33-6.56 223.33-6.10L223.33-6.10L223.33-6.10Q223.33-2.76 218.84-0.17L218.84-0.17L218.84-0.17Q214.36 2.42 209.99 2.42L209.99 2.42L209.99 2.42Q208.38 2.42 208.38 0.58L208.38 0.58L208.61-1.61L208.61-1.61Q211.14-20.93 211.14-43.47L211.14-43.47L211.14-43.47Q211.14-52.21 210.45-61.18L210.45-61.18L210.33-63.71L210.33-63.71Q210.10-66.93 209.01-69.23L209.01-69.23L209.01-69.23Q207.92-71.53 207.00-72.22L207.00-72.22L205.96-72.80L205.96-72.80Q205.16-73.26 205.16-73.83L205.16-73.83L205.16-73.83Q205.16-75.44 210.56-77.80L210.56-77.80L210.56-77.80Q215.97-80.16 218.90-80.16L218.90-80.16L218.90-80.16Q221.83-80.16 222.06-78.89L222.06-78.89L222.06-78.89Q222.52-73.03 222.52-61.76" fill="#a7d4ec" stroke="none" stroke-width="none" transform="translate(-256.73993492126465,35.30200043487549)" style="fill: rgb(167, 212, 236);"></path></g><g class="path" style="transform: matrix(1, 0, 0, 1, 0, 14.925); opacity: 0.05; transform-origin: 16.325px 10.292px; animation: 1s linear 0.33s 1 normal forwards running float-btt-in-6e2d2010-e050-4f23-8b12-4f7a720cef38;"><path d="M266.00-29.21L266.00-29.21L266.11-26.34L266.11-26.34Q266.11-25.64 267.03-25.64L267.03-25.64L267.03-25.64Q270.71-25.99 273.47-27.54L273.47-27.54L273.47-27.54Q276.23-29.10 277.61-31.05L277.61-31.05L277.61-31.05Q280.37-35.30 280.60-38.41L280.60-38.41L280.71-39.79L280.71-39.79Q280.71-46 275.77-46L275.77-46L275.77-46Q272.09-46 269.79-42.78L269.79-42.78L269.79-42.78Q266.00-37.72 266.00-29.21zM291.06-13.92L291.06-13.92L291.06-13.92Q291.06-9.54 289.28-6.27L289.28-6.27L289.28-6.27Q287.50-2.99 285.26-1.44L285.26-1.44L285.26-1.44Q283.01 0.12 280.02 1.04L280.02 1.04L280.02 1.04Q276.23 2.19 272.78 2.19L272.78 2.19L272.78 2.19Q263.12 2.19 258.52-5.06L258.52-5.06L258.52-5.06Q253.92-12.30 253.92-23.52L253.92-23.52L253.92-23.52Q253.92-34.73 259.61-43.47L259.61-43.47L259.61-43.47Q265.30-52.21 276.69-52.21L276.69-52.21L276.69-52.21Q287.04-52.21 290.72-44.97L290.72-44.97L290.72-44.97Q292.21-42.20 292.21-39.73L292.21-39.73L292.21-39.73Q292.21-37.26 291.98-35.82L291.98-35.82L291.98-35.82Q291.75-34.38 290.38-31.51L290.38-31.51L290.38-31.51Q289.00-28.64 286.69-26.34L286.69-26.34L286.69-26.34Q284.39-24.04 279.45-21.96L279.45-21.96L279.45-21.96Q274.50-19.89 267.83-19.21L267.83-19.21L267.83-19.21Q266.91-19.21 266.91-18.40L266.91-18.40L266.91-18.40Q266.91-17.37 267.66-15.35L267.66-15.35L267.66-15.35Q268.41-13.34 269.33-11.96L269.33-11.96L269.33-11.96Q271.86-8.74 276.80-8.74L276.80-8.74L276.80-8.74Q281.75-8.74 285.20-11.96L285.20-11.96L285.20-11.96Q287.04-13.69 288.19-16.21L288.19-16.21L288.19-16.21Q288.65-17.14 289.40-17.14L289.40-17.14L289.40-17.14Q290.14-17.14 290.60-15.87L290.60-15.87L290.60-15.87Q291.06-14.61 291.06-13.92" fill="#a7d4ec" stroke="none" stroke-width="none" transform="translate(-256.73993492126465,35.30200043487549)" style="fill: rgb(167, 212, 236);"></path></g><g class="path" style="transform: matrix(1, 0, 0, 1, 0, 14.925); opacity: 0.05; transform-origin: 57.325px 10.062px; animation: 1s linear 0.396s 1 normal forwards running float-btt-in-6e2d2010-e050-4f23-8b12-4f7a720cef38;"><path d="M331.89-39.56L331.31-30.82L331.78-26.80L331.78-26.80Q331.78-24.61 327.63-24.61L327.63-24.61L327.63-24.61Q319.24-24.61 319.24-30.94L319.24-30.94L319.24-30.94Q319.24-32.43 320.05-35.08L320.05-35.08L320.05-35.08Q320.85-37.72 320.85-39.68L320.85-39.68L320.85-39.68Q320.85-41.63 319.70-43.07L319.70-43.07L319.70-43.07Q318.55-44.51 316.37-44.51L316.37-44.51L316.37-44.51Q314.18-44.51 312.63-42.95L312.63-42.95L312.63-42.95Q311.08-41.40 310.73-39.79L310.73-39.79L310.27-38.18L310.27-38.18Q309.58-34.62 309.58-26.28L309.58-26.28L309.58-26.28Q309.58-17.94 309.81-13.17L309.81-13.17L309.81-13.17Q310.04-8.39 310.27-6.61L310.27-6.61L310.27-6.61Q310.50-4.83 310.50-4.49L310.50-4.49L310.50-4.49Q310.50-1.61 306.94 0.17L306.94 0.17L306.94 0.17Q303.37 1.96 299.81 1.96L299.81 1.96L299.81 1.96Q296.24 1.96 296.24 0.46L296.24 0.46L296.81-3.10L296.81-3.10Q298.43-13.11 298.43-29.21L298.43-29.21L298.43-29.21Q298.43-45.31 297.28-51.06L297.28-51.06L297.28-51.06Q297.28-52.44 299.69-52.44L299.69-52.44L299.69-52.44Q305.90-52.44 307.97-48.19L307.97-48.19L307.97-48.19Q308.09-47.73 308.37-47.73L308.37-47.73L308.37-47.73Q308.66-47.73 309.93-48.76L309.93-48.76L309.93-48.76Q313.72-51.87 318.90-51.87L318.90-51.87L318.90-51.87Q322.12-51.87 325.34-50.60L325.34-50.60L325.34-50.60Q331.89-47.96 331.89-39.56L331.89-39.56" fill="#a7d4ec" stroke="none" stroke-width="none" transform="translate(-256.73993492126465,35.30200043487549)" style="fill: rgb(167, 212, 236);"></path></g><g class="path" style="transform: matrix(1, 0, 0, 1, 0, 14.925); opacity: 0.05; transform-origin: 131.04px -5.348px; animation: 1s linear 0.462s 1 normal forwards running float-btt-in-6e2d2010-e050-4f23-8b12-4f7a720cef38;"><path d="M387.67-65.89L387.67-65.89L387.67-65.89Q378.58-54.51 374.56-43.13L374.56-43.13L374.67-43.13L374.67-43.13Q390.65-43.13 393.01-43.07L393.01-43.07L393.01-43.07Q395.37-43.01 395.60-43.24L395.60-43.24L395.60-43.24Q395.83-43.47 395.94-43.82L395.94-43.82L395.94-43.82Q393.99-57.96 392.84-63.08L392.84-63.08L392.84-63.08Q391.69-68.20 390.54-68.20L390.54-68.20L390.54-68.20Q389.39-68.20 387.67-65.89zM377.43-11.73L377.43-11.73L379.96-12.19L379.96-12.19Q381.11-12.19 381.11-10.93L381.11-10.93L381.11-10.93Q381.11-6.90 379.50-4.14L379.50-4.14L379.50-4.14Q377.89-1.38 375.48-0.23L375.48-0.23L375.48-0.23Q371.56 1.73 368.81 1.73L368.81 1.73L368.81 1.73Q363.51 1.73 360.87-2.24L360.87-2.24L360.87-2.24Q358.23-6.21 358.23-14.20L358.23-14.20L358.23-14.20Q358.23-22.20 362.60-34.96L362.60-34.96L355.93-34.96L355.93-34.96Q354.66-34.96 354.66-36.23L354.66-36.23L354.66-36.23Q354.66-37.49 356.62-40.31L356.62-40.31L356.62-40.31Q358.57-43.13 360.75-43.13L360.75-43.13L365.93-43.13L365.93-43.13Q374.10-61.30 385.13-74.52L385.13-74.52L385.13-74.52Q388.01-77.97 392.21-80.96L392.21-80.96L392.21-80.96Q396.40-83.95 398.70-83.95L398.70-83.95L398.70-83.95Q401.00-83.95 402.15-81.88L402.15-81.88L402.15-81.88Q405.14-77.05 409.17-46.58L409.17-46.58L409.17-46.58Q410.55-33.47 413.94-19.49L413.94-19.49L413.94-19.49Q417.33-5.52 420.21-3.22L420.21-3.22L420.21-3.22Q420.90-2.76 420.90-2.07L420.90-2.07L420.90-2.07Q420.90-0.35 416.01 1.15L416.01 1.15L416.01 1.15Q411.13 2.65 408.54 2.65L408.54 2.65L408.54 2.65Q405.95 2.65 404.57 2.01L404.57 2.01L404.57 2.01Q403.19 1.38 402.85 0.69L402.85 0.69L402.85 0.69Q400.77-3.80 398.70-20.70L398.70-20.70L398.01-26.11L398.01-26.11Q397.56-31.51 397.10-34.27L397.10-34.27L396.29-34.84L372.25-34.96L372.25-34.96Q370.88-29.10 370.88-24.73L370.88-24.73L370.88-24.73Q370.88-20.36 371.16-18.34L371.16-18.34L371.16-18.34Q371.45-16.33 373.06-14.03L373.06-14.03L373.06-14.03Q374.67-11.73 377.43-11.73" fill="#a7d4ec" stroke="none" stroke-width="none" transform="translate(-256.73993492126465,35.30200043487549)" style="fill: rgb(167, 212, 236);"></path></g><g class="path" style="transform: matrix(1, 0, 0, 1, 0, 14.925); opacity: 0.05; transform-origin: 186.7px 26.677px; animation: 1s linear 0.528s 1 normal forwards running float-btt-in-6e2d2010-e050-4f23-8b12-4f7a720cef38;"><path d="M424.81-17.60L424.81-17.60L424.81-17.60Q425.04-29.21 425.04-36.69L425.04-36.69L425.04-36.69Q425.04-44.16 424.00-50.95L424.00-50.95L424.00-50.95Q424.00-52.09 426.31-52.09L426.31-52.09L426.31-52.09Q428.60-52.09 430.27-51.52L430.27-51.52L430.27-51.52Q431.94-50.95 432.63-50.26L432.63-50.26L432.63-50.26Q434.47-48.41 434.76-48.41L434.76-48.41L434.76-48.41Q435.04-48.41 436.54-49.45L436.54-49.45L436.54-49.45Q441.02-52.33 446.49-52.33L446.49-52.33L446.49-52.33Q451.95-52.33 456.03-49.57L456.03-49.57L456.03-49.57Q460.12-46.80 461.84-42.32L461.84-42.32L461.84-42.32Q464.94-34.62 464.94-25.99L464.94-25.99L464.94-25.99Q464.94-17.48 461.84-8.97L461.84-8.97L461.84-8.97Q460.12-4.37 456.78-1.44L456.78-1.44L456.78-1.44Q453.44 1.50 448.96 1.50L448.96 1.50L448.96 1.50Q440.10 1.50 440.10-8.74L440.10-8.74L440.10-8.74Q440.10-11.50 441.25-11.50L441.25-11.50L441.25-11.50Q441.48-11.50 442.58-10.98L442.58-10.98L442.58-10.98Q443.67-10.46 444.70-10.46L444.70-10.46L444.70-10.46Q452.87-10.46 452.87-27.77L452.87-27.77L452.87-27.77Q452.87-45.08 444.13-45.08L444.13-45.08L444.13-45.08Q441.71-45.08 440.05-43.99L440.05-43.99L440.05-43.99Q438.38-42.90 437.92-41.86L437.92-41.86L437.46-40.71L437.46-40.71Q435.85-30.36 435.85-0.81L435.85-0.81L435.85-0.81Q435.85 12.54 436.37 18.34L436.37 18.34L436.37 18.34Q436.88 24.15 436.88 25.30L436.88 25.30L436.88 25.30Q436.88 26.45 436.19 27.37L436.19 27.37L436.19 27.37Q433.89 30.36 429.98 32.72L429.98 32.72L429.98 32.72Q426.07 35.08 423.08 35.08L423.08 35.08L423.08 35.08Q421.94 35.08 421.94 33.58L421.94 33.58L421.94 33.58Q423.77 21.96 424.81-17.60" fill="#a7d4ec" stroke="none" stroke-width="none" transform="translate(-256.73993492126465,35.30200043487549)" style="fill: rgb(167, 212, 236);"></path></g><g class="path" style="transform: matrix(1, 0, 0, 1, 0, 14.925); opacity: 0.05; transform-origin: 232.475px 26.677px; animation: 1s linear 0.594s 1 normal forwards running float-btt-in-6e2d2010-e050-4f23-8b12-4f7a720cef38;"><path d="M470.58-17.60L470.58-17.60L470.58-17.60Q470.81-29.21 470.81-36.69L470.81-36.69L470.81-36.69Q470.81-44.16 469.78-50.95L469.78-50.95L469.78-50.95Q469.78-52.09 472.08-52.09L472.08-52.09L472.08-52.09Q474.38-52.09 476.04-51.52L476.04-51.52L476.04-51.52Q477.71-50.95 478.40-50.26L478.40-50.26L478.40-50.26Q480.24-48.41 480.53-48.41L480.53-48.41L480.53-48.41Q480.81-48.41 482.31-49.45L482.31-49.45L482.31-49.45Q486.80-52.33 492.26-52.33L492.26-52.33L492.26-52.33Q497.72-52.33 501.80-49.57L501.80-49.57L501.80-49.57Q505.88-46.80 507.61-42.32L507.61-42.32L507.61-42.32Q510.72-34.62 510.72-25.99L510.72-25.99L510.72-25.99Q510.72-17.48 507.61-8.97L507.61-8.97L507.61-8.97Q505.88-4.37 502.55-1.44L502.55-1.44L502.55-1.44Q499.22 1.50 494.73 1.50L494.73 1.50L494.73 1.50Q485.88 1.50 485.88-8.74L485.88-8.74L485.88-8.74Q485.88-11.50 487.03-11.50L487.03-11.50L487.03-11.50Q487.25-11.50 488.35-10.98L488.35-10.98L488.35-10.98Q489.44-10.46 490.48-10.46L490.48-10.46L490.48-10.46Q498.64-10.46 498.64-27.77L498.64-27.77L498.64-27.77Q498.64-45.08 489.90-45.08L489.90-45.08L489.90-45.08Q487.49-45.08 485.82-43.99L485.82-43.99L485.82-43.99Q484.15-42.90 483.69-41.86L483.69-41.86L483.23-40.71L483.23-40.71Q481.62-30.36 481.62-0.81L481.62-0.81L481.62-0.81Q481.62 12.54 482.14 18.34L482.14 18.34L482.14 18.34Q482.66 24.15 482.66 25.30L482.66 25.30L482.66 25.30Q482.66 26.45 481.97 27.37L481.97 27.37L481.97 27.37Q479.67 30.36 475.75 32.72L475.75 32.72L475.75 32.72Q471.85 35.08 468.86 35.08L468.86 35.08L468.86 35.08Q467.71 35.08 467.71 33.58L467.71 33.58L467.71 33.58Q469.55 21.96 470.58-17.60" fill="#a7d4ec" stroke="none" stroke-width="none" transform="translate(-256.73993492126465,35.30200043487549)" style="fill: rgb(167, 212, 236);"></path></g></g>
</g>
</g>
<style id="float-btt-in-6e2d2010-e050-4f23-8b12-4f7a720cef38" data-anikit="">@keyframes float-btt-in-6e2d2010-e050-4f23-8b12-4f7a720cef38
{
  0% {
    animation-timing-function: cubic-bezier(0.2242,0.7499,0.3142,0.8148);
    transform: translate(0px,14.925px) rotate(0deg) scale(1,1) skewX(0deg) skewY(0deg);
    opacity: 0.05;
  }
  100% {
    transform: translate(0px,0px) rotate(0deg) scale(1,1) skewX(0deg) skewY(0deg);
    opacity: 1;
  }
}</style></svg>